# xmcd CD database file
#
# Track frame offsets:
#	150
#	77648
#	145116
#
# Disc length: 3091 seconds
#
# Revision: 0
# Processed by: cddbd v1.5.1PL0 Copyright (c) Steve Scherf et al.
# Submitted via: CDex 1.51
#
DISCID=1c0c1103
DTITLE=Steve Lukather - Blues Project
DYEAR=2000
DGENRE=Blues
TTITLE0=Tobacco Road
TTITLE1=Brush With The Blues
TTITLE2=Frankenstein
EXTD=YEAR: 2000
EXTT0=
EXTT1=
EXTT2=
PLAYORDER=
